<?xml version="1.0" encoding="UTF-8"?>
<svg id="_Слой_1" xmlns="http://www.w3.org/2000/svg" version="1.1" viewBox="0 0 1536 1024">
  <!-- Generator: Adobe Illustrator 29.8.3, SVG Export Plug-In . SVG Version: 2.1.1 Build 3)  -->
  <defs>
    <style>
      .st0 {
        fill: none;
      }
    </style>
  </defs>
  <path class="st0" d="M56,114.87v.98c1.68.28,3.22,1.23,4.99,1v-.98s-4.99-1-4.99-1Z"/>
  <path class="st0" d="M29,103.87v.98c1.69.28,3.23,1.23,4.99,1v-.98s-4.99-1-4.99-1Z"/>
  <rect class="st0" x="55.61" y="152.79" width="1.59" height="7.07" transform="translate(-109.73 152.01) rotate(-68.67)"/>
  <path class="st0" d="M19,99.87v.98c1.69.28,3.23,1.23,4.99,1v-.98s-4.99-1-4.99-1Z"/>
  <path class="st0" d="M144,147.87v.98c1.68.28,3.23,1.23,4.99,1v-.98s-4.99-1-4.99-1Z"/>
  <path class="st0" d="M91,128.87v.98c1.68.28,3.22,1.23,4.99,1v-.98s-4.99-1-4.99-1Z"/>
  <rect class="st0" x="131.32" y="140.81" width="1.4" height="5.88" transform="translate(-35.03 244.68) rotate(-78.58)"/>
  <path class="st0" d="M1425.11,576.63c.4-5.48,4.75-16.51-1.26-19.72-5.43-.81-12.84-5.56-17.71-6.36-1.56-.26-2.58.5-4.03.59l1.01-1.98c-4.15-.45-6.86-3.94-11.01-2.02l1.01-1.99h-6.01s.99-1.95.99-1.95c-3.54-1.22-5.15-2.69-8.99-1.06l.49-2.01c-3.5,2.04-1.61-.22-3.71-1.28-2.45-1.24-6.96-2.61-9.61-1.97l-.34-1.46-1.63.48-.78-1.78c-1.49.87-6.99-1.14-8-3l-2.3.91c-.44-3.42-3.49-2.57-6.12-1.88l.49-2.01-2.37.87-.23-1.7-2.37.87.49-2.01-2.88.83c-.7-2.81-9.08-2.13-10.31-5.61l-1.65.55-.29-1.59-2.88.82.49-2c-3.84,1.97-3.96-1.29-4.64-1.77-.25-.18-5.01,1.64-4.95-2.09l-2.31.93-.7-1.89-2.35.85.49-2.01-4.01.99,1.01-1.97c-3.36-.73-5.52-2.53-9.01-1.03l.99-1.94c-2.76-1.59-5.68-1.44-8.29-2.09-.82-.2-.73-1.47-1.02-1.6-4.86-2.23-10.02-3.86-14.34-7.2-4.67-.83-18.58,14.74-22.32,18.35-12.65,12.2-22.46,23.11-33.47,36.53-3.36,4.09-9.07,6.38-12.55,10.45l1.97.93c-3.52,8.98-1.6,19.51-1.92,29.11-1.16,34.81.59,70.2-1,105-.11,2.32-1,4.21-1.04,6.45,1.04-.36,1.5-.64,2.65-.25,11.94,3.96,24.05,14.31,35.4,18.69,2.76,1.06,5.97.88,8.86,2.14,3.22,1.41,7.05,5.6,10.14,6.86,3.59,1.47,8.3,1.16,12.19,2.81,4.75,2.01,7.49,9.05,11.41,4.96,22.49,9.41,47.69,16.37,68.65,28.98,1.91,1.15,7.05,5.77,8.01,5.68,2.89-1.72,6.56-2.81,9.18-4.86,2.13-1.67,9.62-11.28,9.58-13.47-.05-2.18-1.97-4.36-.59-6.51,7.19-10.52,20.99-21.41,26.39-32.65,4.9-10.21,4.97-10.2,12.11-18.89,8.34-10.16,3.01-6.8,1.23-15.19-1.19-5.62.69-10.63.84-15.74.89-30.29.72-60.81,2.94-91.06h0ZM1225.13,599.13v-.98s4.99,1,4.99,1v.98c-1.77.23-3.31-.72-4.99-1ZM1235.13,603.13v-.98s4.99,1,4.99,1v.98c-1.77.23-3.31-.72-4.99-1ZM1265.54,656.63l-6.59-2.57.58-1.49,6.59,2.57s-.58,1.49-.58,1.49ZM1262.13,614.13v-.98s4.99,1,4.99,1v.98c-1.77.23-3.31-.72-4.99-1ZM1297.13,628.13v-.98s4.99,1,4.99,1v.98c-1.77.23-3.31-.72-4.99-1ZM1340.88,643.29l-5.76-1.16.28-1.37,5.76,1.16-.28,1.37ZM1350.13,647.13v-.98s4.99,1,4.99,1v.98c-1.77.23-3.31-.72-4.99-1Z"/>
</svg>