<?xml version="1.0" encoding="UTF-8"?>
<svg id="_Слой_1" xmlns="http://www.w3.org/2000/svg" version="1.1" viewBox="0 0 1536 1024">
  <!-- Generator: Adobe Illustrator 29.8.3, SVG Export Plug-In . SVG Version: 2.1.1 Build 3)  -->
  <defs>
    <style>
      .st0 {
        fill: none;
      }
    </style>
  </defs>
  <path class="st0" d="M875.34,128.97c-12.48-5.78-24.64-13.03-37.79-17.08-9.7,2.25-18.71,6.71-28.07,9.97-26.96,9.39-55.31,17.81-81.78,28.22-7.55,2.97-15.71,5.59-21.74,11.26,2.87.78,1.1,1.38,1.76,3.16.44,1.19,1.96,2.85,1.9,3.83-.03.58-1.31,1.85-1.62,3.04-4.05,15.69-2.03,39.22-2,56.02,0,4.04-.07,7.91-.04,11.94.05,4.95-1.19,23.5,1.99,26,.96.76,3.51,1.12,5.04,1.96,4.68,2.54,6.71,4.72,12.95,3.55-2.34,6.02-.57,10.35,4.69,13.87,6.89-.6,12.13-.7,18.84-2.86,24.22-7.78,47.55-21.15,71.22-29.78,8.66-3.16,17.57-4.31,25.94-8.06,1.16-.52,6.85-3.1,7.09-3.41.7-.86,2.39-9.52,3.45-12.05,1.7-4.06,2.07-4.83,5.76-1.73,3.88-9.49,2.27-18.89,3-28.51,1.01-13.33,2.63-26.68,4.02-39.98.52-5.02-.13-10.41,1.45-15.55,1.2-3.89,5.56-7.43,5.41-12.37l-1.49-1.47h0l.02.03Z"/>
</svg>