<?xml version="1.0" encoding="UTF-8"?>
<svg id="_Слой_1" xmlns="http://www.w3.org/2000/svg" version="1.1" viewBox="0 0 1536 1024">
  <!-- Generator: Adobe Illustrator 29.8.3, SVG Export Plug-In . SVG Version: 2.1.1 Build 3)  -->
  <defs>
    <style>
      .st0 {
        fill: none;
      }
    </style>
  </defs>
  <path class="st0" d="M89.14,94.04c1.91.46,2.75-.6,4.12-1.36,4.93-2.74,9.37-6.66,14.7-8.78l-.32-2.84s-18.5,12.99-18.5,12.99Z"/>
  <path class="st0" d="M121.14,74.04c1.84.23,2.91.05,3.98-1.5l-2.47-1.5-1.51,2.99h0Z"/>
  <path class="st0" d="M112.22,80.64l6.91-5.59c-3.6.19-7.41,3.12-9.98,5.5,0,0,3.07.09,3.08.09Z"/>
  <rect class="st0" x="52.87" y="82.63" width="1.52" height="5.82" transform="translate(-47.31 87.91) rotate(-59.26)"/>
  <rect class="st0" x="37.03" y="87.43" width="1.74" height="6.29" transform="translate(-60.26 88.55) rotate(-66.11)"/>
  <path class="st0" d="M185.14,32.05v.98l2.5.99c1.07-.9,1.81-1.51,1.49-2.98,0,0-3.99,1.01-3.99,1Z"/>
  <path class="st0" d="M176.41,37.83c-1.19.95-2.74,1.12-2.28,3.22l7.99-3.01-1.99-1.98,4-2c-2.66-.14-5.71,2.17-7.72,3.77Z"/>
  <path class="st0" d="M154.36,52.97c-6.03,3.62-12.37,7.03-18.66,10.21l-1.56,3.86,24.99-15.49c-2.3-3.18-3.57.7-4.76,1.42h0Z"/>
  <path class="st0" d="M161.14,47.05l-1,2.99c4.16.51,5.39-2.7,1-2.99Z"/>
  <path class="st0" d="M1058.98,177.52c-16.59-6.78-34.42-14.94-51-21-2.08-.76-4.09-1.77-6.41-1.52-15.41,8.91-31.63,16.36-47.25,24.83-19.11,10.35-37.31,22.51-57.32,31.19,2.46,2.72,1.62,3.03,0,5.98l72,37.01-2.99.48-69.59-36.4-1.42,1.92c3.17-.4,4.92,2.01,7.31,3.2,4.61,2.3,11.08,3.98,14.69,7.8-4.25-.24-25-13.36-26.98-11.98-.74,3.45-1.8,6.89-2.06,10.44-.95,12.96-.96,34.12.04,47.05.13,1.73.95,7.22,1.51,8.49,1.02,2.28,5.86,4.12,6.35,5.65.48,1.52.02,3.77.36,5.64.26,1.4,1.45,3.03,1.42,4.23-.06,2.53-5.82,6.76-7.62,9.01-5,6.22-9.88,10.97-7.55,19.52.36,1.34,7.31,15.17,8.04,15.99,2.25,2.51,9.88-2.99,12.03-4.99,1.38-1.28,2.61-3.99,3.43-4.52.33-.22,5.45-.47,7.73-1.32,9.46-3.54,20.07-12.55,28.58-15.41,6.1-2.04,6.59.31,11.45,1.98,12.96,4.46,26.15,8.73,39.27,12.73,1.62.5,3.05,1.93,4.71,2.29,10.84,2.37,28.11-5.26,36.62-11.96,6.88-5.41,10.95-13.07,18.33-17.67,2.4-1.5,7.42-2.99,9.06-4.45,1.53-1.35,3.4-5.36,5.77-6.72,1.23-8.35.89-17.05,1.49-25.51.9-12.66,2.16-25.4,3.02-37.98,1.07-15.51-.29-32.05,5.99-46.5-6.45-.99-12.82-4.95-19.02-7.49h0ZM922.29,247.6l-5.75-2.55.7-1.59,5.75,2.55-.7,1.59ZM937.62,242.64l-5.01-2.98.78-1.31,5.01,2.98-.78,1.31ZM975.13,247.63c-1.37.76-2.21,1.83-4.12,1.36l18.5-12.99.32,2.84c-5.33,2.12-9.76,6.04-14.7,8.78ZM994.09,235.59l-3.07-.09c2.57-2.37,6.38-5.3,9.98-5.5,0,0-6.91,5.59-6.91,5.59ZM1003,229l1.51-2.99,2.47,1.5c-1.07,1.55-2.14,1.73-3.98,1.5h0ZM1016,221.99l1.56-3.86c6.29-3.18,12.63-6.59,18.66-10.21,1.2-.72,2.46-4.6,4.76-1.42l-24.99,15.49h0ZM1042,204.99l1-2.99c4.38.29,3.15,3.5-1,2.99ZM1064,192.99l-7.99,3.01c-.46-2.1,1.09-2.26,2.28-3.22,2.01-1.61,5.06-3.92,7.72-3.77l-4,2s1.99,1.98,1.99,1.98ZM1069.51,188.98l-2.5-.99v-.98l3.99-1c.32,1.47-.42,2.08-1.49,2.98h0Z"/>
</svg>