<?xml version="1.0" encoding="UTF-8"?>
<svg id="_Слой_1" xmlns="http://www.w3.org/2000/svg" version="1.1" viewBox="0 0 1536 1024">
  <!-- Generator: Adobe Illustrator 29.8.3, SVG Export Plug-In . SVG Version: 2.1.1 Build 3)  -->
  <defs>
    <style>
      .st0 {
        fill: none;
      }
    </style>
  </defs>
  <rect class="st0" x="377.44" y="320.09" width="18.02" height="1.66" transform="translate(-113.67 273.89) rotate(-34.33)"/>
  <path class="st0" d="M399,286l-.48-13.01c-1.13-2.23-7.93-4.14-10.51-4.98l8.48,5,2.51,12.99h0Z"/>
  <path class="st0" d="M448.01,225.01v.98c1.68.28,3.22,1.23,4.99,1v-.98s-4.99-1-4.99-1Z"/>
  <path class="st0" d="M456.01,228.01v.98s4,1,4,1c-.5-1.94-2.18-2.25-4-1.99h0Z"/>
  <rect class="st0" x="490.61" y="218.22" width="1.75" height="24.16" transform="translate(99.13 605.34) rotate(-68.82)"/>
  <path class="st0" d="M377,254.99v-.98s-4-1-4-1c.5,1.94,2.18,2.25,4,1.99h0Z"/>
  <path class="st0" d="M375.01,264.01v.98s4,1,4,1c-.5-1.94-2.18-2.25-4-1.99h0Z"/>
  <path class="st0" d="M387,283c-.77-4.16,1.98-11.31-1.99-14l.09,7.4,1.9,6.6h0Z"/>
  <path class="st0" d="M418.01,214.01v.98c1.68.28,3.22,1.23,4.99,1v-.98s-4.99-1-4.99-1Z"/>
  <rect class="st0" x="354.73" y="183.86" width="1.56" height="13.25" transform="translate(56.4 461.05) rotate(-70.31)"/>
  <rect class="st0" x="369.23" y="190.96" width="1.55" height="10.07" transform="translate(58.47 475.76) rotate(-69.83)"/>
  <rect class="st0" x="438.77" y="216.46" width="1.46" height="11.08" transform="translate(92.93 571.76) rotate(-72.06)"/>
  <rect class="st0" x="387.71" y="192.13" width="1.59" height="21.78" transform="translate(64.54 498.31) rotate(-69.94)"/>
  <path class="st0" d="M367.67,333.81c1.84.21,7.44-3.85,8.34-5.8-2.78-.12-4.42,3.18-6.73,3.83-3.89,1.08-9.14-4.55-13.27-4.83,1.55,1.95,9.7,6.58,11.66,6.8h0Z"/>
  <rect class="st0" x="407.73" y="203.86" width="1.56" height="13.25" transform="translate(72.71 524.21) rotate(-70.31)"/>
  <rect class="st0" x="333.93" y="382.03" width="5.65" height="1.43" transform="translate(-172.01 350.22) rotate(-45)"/>
  <path class="st0" d="M304.01,385c.96.96,4.55-2.58,5-3.99-2.64-.39-5.16,1.41-5,3.99Z"/>
  <rect class="st0" x="309.22" y="395.78" width="27.57" height="1.44" transform="translate(-185.79 344.87) rotate(-45.04)"/>
  <path class="st0" d="M346.01,373.99c1.83.32,3.29-1.04,2.99-2.99l-2.99,2.99Z"/>
  <rect class="st0" x="321.87" y="274.6" width="2.02" height="67.22" transform="translate(-106.24 431.11) rotate(-59.65)"/>
  <path class="st0" d="M279.01,408c1.83.31,3.28-1.04,2.99-2.99-1.83-.31-3.28,1.04-2.99,2.99Z"/>
  <path class="st0" d="M255,363c.15-.32.15-4.68,0-4.99-1.2-2.63-1.2,7.62,0,4.99Z"/>
  <rect class="st0" x="248.01" y="337" width="1" height="14"/>
  <rect class="st0" x="247" y="322" width="1" height="11.99"/>
  <path class="st0" d="M256.01,352.01l10,4.99c-2.04-2.79-6.66-4.77-10-4.99Z"/>
  <rect class="st0" x="276" y="365" width="1.01" height="7.99"/>
  <path class="st0" d="M521.49,319.02l-.45-17.35-8.87-8.29c-.17-.8,1.56-5.44,2.09-6.62,2.06-4.65,4.02-6.61,6.01-11.99,4.25-11.49,4.7-21.49,3.26-33.77l-5.51-3.49-42.51-16.51-12.5,7.01,4-3.99-5,1.01,1.01,1.97c-40.41-12.1-78.99-30.38-119.38-42.76-21.4,13.31-45.52,24.03-65.92,38.78-.6.43-.68,1.2-.86,1.85l-8.23-.83-1.1-2.04-44.51,27.51c-.45,1.98.78,1.37,1.96,1.98,12.12,6.29,24.89,11.43,37.55,16.5l33.13-21.9c1.9-.34,1.81,2.01,3.05,2.96,2.6,1.99,8.63,3.48,11.64,5.82l26.65-18.36-8.54-3.45c-1.02-1.27-.44-2.5.49-3.62,1.76-2.12,13.94-8.37,17.39-10.61,2.44-1.57,4.73-3.87,7.14-5.52l80.81,32.53c2.99-1.67,5.18-4.88,9.01-3.66l43.44,18.7,2.22-.36,27.04-19.02-9.99-5.48,14,4-32.5,24-.51,33.99c-1.8.49-.43-2.3-1.48-1.99-4.81,1.4-15.31,10.53-20.18,13.82-13.67,9.2-28.36,17.19-40.32,28.68v23.5l-1.91-8.59c.56-6.21-3.6-11.96-5.45-17.65-.65-1.99,1.09-4.63-2.13-4.75-14.63,13.34-31.93,23.48-48.02,34.98-1.76,3.4.4,7.32.52,10.51.33,8.27-.92,16.27-1.02,24.51-1.73.24-.97-2.29-.99-3.49-.05-2.82.12-5.66-.07-8.47l-2.94-.07c.5-10.35-8.03-18.7-10.13-28.84-1.84.29-4.89-1.15-6.21-.89-1.66.33-4.34,3.64-7.43.53-1.28-1.29-.26-4.24-2.72-3.8-5.6,1-4.69,7.94-11.6,6.43-5.15-1.12-8.03-5.85-13.9-5.41-.04,2.49.05,5,0,7.5-.02,1.21.74,3.72-1,3.49v-14.5l-11-6.5v14.5c0,.28.86,1.13.95,2.05.19,1.95.76,6.75-.94,6.44.91-1.89-1.01-4.74-1.01-5.5v-17.5c-3.42,2.29-4.29-1.77-7-3v15c0,.05-1,.05-1,0v-15.5l-13-6.5v17c0,.05-1,.05-1,0v-15.5c0-.25-2.92-3.12-3.67-3.35-5.83-1.74-4.27,5.55-4.33,9.36-.02,1.19.73,3.73-.99,3.49l-1.49-17.01-11.51-6.99v16c0,.05-1,.05-1,0v-14.5c0-.72-3.75-7.76-5.9-5.58-.18-1.83-.97-3.57-1.1-5.41-.11-1.49-.62-8.1,2.03-7.07,3.31,1.29,6.46,2.41,9.96,3.06,28.66,14.06,56.85,29.62,85.65,43.35,7.73,3.69,15.84,6.62,23.69,10.01l46.95-33.13c3.85-1.78,7.87,1.65,11.39,3.1l56.77-37.91,3.56-.95c-.58-2.58-5.15-4.25-5.98-5.75-2.88-5.24-1.46-10.68-2.5-16.26l-8.03-3.97-1.01,15.04,1.56,1.39,5.95,2.55c-5.13,2.05-7.92-1.39-12.31-3.18-3.09-1.26-13.75-4.67-15.42-6.09-1.46-1.24-2.56-4.78-2.27-6.74l-1.99,1.02c-.33-6.07.43-12.5,0-18.52-.12-1.74-.78-7.61-1.15-8.85-.29-.99-1.25-1.85-2.35-1.68-9.73,3.54-5.69,8.28-5.46,15.49.3,9.16-.32,18.39-.04,27.55l3.99-1.5c-4.28,3.33-8.74,6.76-13.27,9.73-1.73,1.13-3.55,2.85-5.72,2.77,1.92-3.35,7.93-4.76,10.07-7.42,3.1-3.84-1.55-25.71-.22-31.93-.6-1.87-4.03-2.86-5.85-2.65v37c-1.74.23-.98-2.29-1-3.49-.04-2.46.2-4.95-.12-7.39l-3.87-1.12c-.04,1.82.04,3.67,0,5.5-.03,1.2.74,3.73-.99,3.49l-.12-8.88c-3.9-1.33-8.71-2.98-12.2-5.12-1.08-.66-.62-3.15-4.68-2-.04,2.16.04,4.34,0,6.51-.02,1.2.74,3.72-.99,3.49-1.24-3.64,1.3-9.72,1.08-12.38-.07-.9-2.82-1.04-3.61-2.59-.95-1.87-.2-3.99-.58-5.92-3.22-2.17-4.09.43-6.42.88-4.34.83-11.85-2.23-13.47-6.5-.33-.88,1.9.36,2.08-1.92.49-6.22-1.48-12.25-1.21-18.45l-15.86-7.13c1.13,5.09,1.21,10.28,1,15.5-.05,1.22.76,3.72-.99,3.49-.16-2.2-.37-5.28-1.25-7.26-2.28-5.13-4.13-10.66-5.55-16.45-.62-2.53,0-5.62-1.22-8.28-1.14-.17-1.96-.03-2.99.5-3.95,2.03-8.93,7.19-13.33,9.74-.19.11-2.98,1.51-3.39,1.7-1.19.58-2.94.78-4.28,1.06,2.22,4.11,8.83,3.1,11,6.98-5.89.93-9.68,6.24-14.07,9.43-5.41,3.93-11.33,7.18-16.44,11.56-1.65,3.82.41,7.7.56,11.47.32,7.81-.33,15.73-.05,23.54l-1.9-8.59c.56-4.68-2.25-6.52-3.75-11.09-2.02-6.17-3.9-14.07-6.94-20.22-3.87-7.82-5.27-2.82-9.48.32-7.89,5.88-17.19,9.92-24.47,16.6l.42,26.85c-5.15,1.62-9.12,6.57-14.87,6.12l2-2.98-3.99-2c2.38-.65,3.69,1.74,5.54,2.02,3.08.46,7.53-2.15,9.4-4.62.04-3.74-5.53-2.95-6.53-4.33-1.25-1.72.81-5.67-1.43-6.07v14l-2.01-8.49-.1-9.4-8.88-3.11c-.46,3.25.78,6.28,1.04,9.45.09,1.09.68,5.57-1.04,5.54-1.78-3.43-.06-11.44-1.26-13.79-.1-.19-1.2-.29-1.72-.94-1.32-1.65-2.3-4.54-5.03-4.26-.09,3.15.12,6.34,0,9.5-.05,1.22.76,3.72-.99,3.49-2.05-4.98,1.02-9.19-.46-14.05l-8.55-3.94v15c0,.05-1,.05-1,0v-14l-3,1v22c0,.05-1,.05-1,0v-16c-1.74-.23-.98,2.29-1,3.49-.07,3.71-.41,8.55-.08,12.08.2,2.11,2.04.78,2.18,2.88.18,2.61-1,4.74-1.11,7.04-.55,11.3.19,22.62,1.18,33.84.63,2.19,11.2,6.93,14.15,8.85,1.65,1.07,9.58,6.84,10.15,7.85,2.66,4.65.27,8.15.48,12.45.21,4.5,1.7,10.42,2.06,15.01.52,6.74.06,13.6,1.17,20.34,6.14,3.18,14.31,9.75,21.36,10.23,1.56.11,3.08-.83,4.47-.47,5.15,1.32,16.38,11.49,20.3,10.29,1.34-.41,2.19-2.5,3.16-2.58,3.94-.33,15.11,9.51,19.09,11.69l.39.51c-2.62,1.31-.63,5.54.6,7.46,2.04,3.2,12.38,4.08,16.45,5.55,7.53,2.71,18.45,10.69,25.71,12.28,2.03.44,5.44.63,7.29-.29,2.76-1.38,8.96-9.48,12.5-11.5,2.65-5.34-1.64-12.62-1.24-16.36.07-.64,4.62-10.26,5.35-11.54,3.66-6.4,10.69-10.5,16.93-14.12,2.87,1.05,5.95.67,8.86,1.12,5.51.85,16.91,5.23,21.57,3.36,3.41-1.37,11.45-9.18,15.11-11.89,3.67-2.72,7.88-4.64,11.43-7.53-1.69-9.27-3.43-17.79-.5-27.04,3.77,1.15,16.43,9.54,19.27,8.85,1.22-.3,4.88-3.23,5.61-4.47,1.79-3.04,1.43-8.09,3.21-10.79,1.42-2.15,17.63-16,19.62-16.44,1.57-.35,3.1.91,4.73.84,4.86-.22,14.15-9.79,18.54-12.5l-8.5-6.48h0ZM361.48,193.45l-12.47-4.46.53-1.47,12.47,4.46-.53,1.47ZM374.47,198.46l-9.46-3.47.53-1.45,9.46,3.47-.53,1.45ZM398.46,207.5l-20.46-7.47.54-1.49,20.46,7.47s-.54,1.49-.54,1.49ZM414.48,213.45l-12.47-4.46.53-1.47,12.47,4.46-.53,1.47ZM418.01,214.99v-.98s4.99,1,4.99,1v.98c-1.77.23-3.31-.72-4.99-1ZM444.55,224.4l-10.54-3.41.45-1.39,10.54,3.41-.45,1.39ZM448.01,225.99v-.98s4.99,1,4.99,1v.98c-1.77.23-3.31-.72-4.99-1ZM456.01,228.99v-.98c1.81-.27,3.49.04,3.99,1.99l-3.99-1h0ZM502.43,235.48l-22.53-8.73.63-1.63,22.53,8.73-.63,1.63h0ZM379.48,326.69l-.94-1.37,14.88-10.16.94,1.37-14.88,10.16ZM398.52,272.99l.48,13.01-2.51-12.99-8.48-5c2.58.84,9.38,2.75,10.51,4.98h0ZM387,283l-1.9-6.6-.09-7.4c3.97,2.68,1.22,9.84,1.99,14h0ZM379.01,265.99l-3.99-1v-.98c1.81-.27,3.49.04,3.99,1.99h0ZM377,254.01v.98c-1.81.27-3.49-.04-3.99-1.99l3.99,1h0ZM369.27,331.84c2.32-.65,3.95-3.95,6.73-3.83-.9,1.96-6.49,6.01-8.34,5.8-1.97-.22-10.11-4.85-11.66-6.8,4.12.28,9.38,5.91,13.27,4.83h0ZM294.39,290.36l58.01,33.97-1.02,1.74-58.01-33.97,1.02-1.74h0ZM247,334v-11.99h1.01v11.99h-1.01ZM249.01,351h-1v-14h1v14ZM255,363c-1.2,2.63-1.2-7.62,0-4.99.15.32.15,4.68,0,4.99ZM256.01,352.01c3.34.22,7.96,2.2,10,4.99,0,0-10-4.99-10-4.99ZM277.01,373h-1.01v-7.99h1.01v7.99ZM279.01,408c-.29-1.96,1.17-3.3,2.99-2.99.29,1.96-1.17,3.3-2.99,2.99ZM304.01,385c-.17-2.58,2.36-4.38,5-3.99-.45,1.41-4.03,4.95-5,3.99ZM313.77,406.76l-1.02-1.01,19.48-19.51,1.02,1.01s-19.48,19.51-19.48,19.51ZM335.26,385.25l-1.01-1.01,3.99-3.99,1.01,1.01s-3.99,3.99-3.99,3.99ZM346.01,373.99l2.99-2.99c.3,1.96-1.16,3.31-2.99,2.99Z"/>
  <path class="st0" d="M417.01,253.5c-4.34-2.63-10-5.55-15-6.5v16.5l15,6.5v-16.5Z"/>
  <path class="st0" d="M397.01,262v-18l-11-4v20.99c4.33-.24,7.13-2.12,11,1.01h0Z"/>
  <path class="st0" d="M457.56,261.94c-1.4-.72-7.76-3.74-8.55-2.94l.44,13.05,8.55,3.94-.44-14.06Z"/>
</svg>