<?xml version="1.0" encoding="UTF-8"?>
<svg id="_Слой_1" xmlns="http://www.w3.org/2000/svg" version="1.1" viewBox="0 0 1536 1024">
  <!-- Generator: Adobe Illustrator 29.8.3, SVG Export Plug-In . SVG Version: 2.1.1 Build 3)  -->
  <defs>
    <style>
      .st0 {
        fill: none;
      }
    </style>
  </defs>
  <path class="st0" d="M167,69.07v.98c1.68.28,3.22,1.23,4.99,1v-.98s-4.99-1-4.99-1Z"/>
  <path class="st0" d="M159,66.07v.98c1.68.28,3.22,1.23,4.99,1v-.98s-4.99-1-4.99-1Z"/>
  <path class="st0" d="M205,83.07v.98c1.68.28,3.22,1.23,4.99,1v-.98s-4.99-1-4.99-1Z"/>
  <rect class="st0" x="16.71" y="86.8" width="1.56" height="12.52" transform="translate(-73.04 65.3) rotate(-62.31)"/>
  <rect class="st0" x="43.72" y="100.18" width="1.56" height="14.76" transform="translate(-71.44 97.28) rotate(-62.46)"/>
  <rect class="st0" x="221.18" y="80.28" width="1.61" height="18.61" transform="translate(60.76 266.53) rotate(-69.64)"/>
  <rect class="st0" x="183.72" y="68.92" width="1.56" height="13.25" transform="translate(51.22 223.81) rotate(-70.31)"/>
  <rect class="st0" x="334.22" y="127.02" width="1.55" height="10.07" transform="translate(95.55 401) rotate(-69.83)"/>
  <path class="st0" d="M250,100.07v.98c1.68.28,3.22,1.23,4.99,1v-.98s-4.99-1-4.99-1Z"/>
  <path class="st0" d="M321,184.07v.98c1.69.28,3.22,1.23,4.99,1v-.98s-4.99-1-4.99-1Z"/>
  <rect class="st0" x="267.22" y="102.02" width="1.55" height="10.07" transform="translate(75.11 321.72) rotate(-69.83)"/>
  <rect class="st0" x="315.27" y="122.23" width="1.4" height="5.88" transform="translate(130.7 410.09) rotate(-78.58)"/>
  <path class="st0" d="M292,116.07v.98c1.69.28,3.22,1.23,4.99,1v-.98s-4.99-1-4.99-1Z"/>
  <path class="st0" d="M906.01,756.51c.47-8.11-.1-21.75,1.47-29,.75-3.47,6.71-6.08,4.38-11.38-6.64-2.74-13.18-5.99-19.86-8.63-46.01-18.14-95.62-36.63-142.47-52.53-9.65-3.27-17.17-3.25-26.29-5.71-11.15-3-22.21-8.19-33.02-11.98-13.82-4.84-27.77-9.34-41.47-14.53-4.32-1.64-17.27-5.66-20.03-7.72-1.52-1.13-1.88-3.82-2.97-4.77-3.35-2.92-17.45-2.16-22.25-2.26-1.94-.04-3.75-1.14-5.96-1.07-12.92.4-26.83,8.06-37.85,14.25-24.84,13.95-51.07,30.45-75.03,45.97-8.28,5.36-20.13,12.39-27.2,18.8-1.98,1.79-2.58,4.84-5.45,5.05l3.99,1-2.04,1.61.05,6.39,1.99-1.02c-.17,9.91-1.33,19.54-1.04,29.56.35,12.03,1.38,24.39,2.49,36.34.36,3.9-.08,8.75.56,12.61.75,4.53,9.49,10.43,13.32,12.68,4.08,2.39,11.48,7.08,15.67,4.81l2.25,6.78,20.25,11.91c11.16-4.24,19.3-12.16,28.6-19.09,14.19-10.57,28.76-21.08,41.92-33.08,4.83-4.4,7.01-11.43,15.25-9.28.95.25,4.87,2.25,6.1,2.9,5.6,2.95,15.74,9.78,21.59,11.41,3.9,1.08,9.21.9,13.29,1.71,6.76,1.34,33.38,15.5,37.2,20.8,5.08,7.04,3.27,10.07,13.28,13.72,6.68,2.44,12.27,1.99,18.63,3.21.79.15.64,1.58,1.33,2.01,2.51,1.55,5.99,2.53,8.65,4.17,2.61,1.61,5.29,4.79,8.09,5.91,3.35,1.33,7.16.68,10.56,1.94-.68-2.83,10.2-13.44,11.7-13.88,2.92-.85,12.2,4.69,13.1,7.58.54,1.73,1.12,6.69,1.25,8.75.78,11.77.77,29.32,0,41.1-.28,4.28-3.65,17.66-1.61,20.52,6.25,1.99,12.46,4,18.55,6.45,6.75,2.72,11.13,5.85,18.77,7.23,4.25.77,13.53,2.38,17.23.73,16.35-12.97,31.41-27.21,47.1-40.9,2.86-2.49,5.71-4.34,8.88-7.1,8.37-7.3,16.42-15.16,24.05-22.93,2.59-2.64,12.45-11.45,13.54-13.57,1.33-2.6-2.5-8.02-2.61-11.5-.07-2.18,1.02-4,1.08-5.96.42-13.6.22-26.56,1-40h0ZM474.68,703.6l-11.09-5.82.73-1.38,11.09,5.82-.73,1.38ZM502.69,718.6l-13.08-6.82.72-1.39,13.08,6.82-.72,1.39ZM611.01,673.99v-.98s4.99,1,4.99,1v.98c-1.77.23-3.31-.72-4.99-1ZM619.01,676.99v-.98s4.99,1,4.99,1v.98c-1.77.23-3.31-.72-4.99-1ZM642.48,685.45l-12.47-4.46.53-1.47,12.47,4.46-.53,1.47ZM657.01,690.99v-.98s4.99,1,4.99,1v.98c-1.77.23-3.31-.72-4.99-1ZM682.44,700.51l-17.45-6.48.56-1.5,17.45,6.48-.56,1.5ZM702.01,707.99v-.98s4.99,1,4.99,1v.98c-1.77.23-3.31-.72-4.99-1ZM724.46,716.46l-9.45-3.47.53-1.46,9.45,3.47-.53,1.46ZM744.01,723.99v-.98s4.99,1,4.99,1v.98c-1.77.23-3.31-.72-4.99-1ZM770.72,733.38l-5.76-1.16.28-1.37,5.76,1.16-.28,1.37ZM773.01,791.99v-.98s4.99,1,4.99,1v.98c-1.77.23-3.31-.72-4.99-1ZM791.46,741.46l-9.45-3.47.53-1.46,9.45,3.47-.53,1.46Z"/>
</svg>