<?xml version="1.0" encoding="UTF-8"?>
<svg id="_Слой_1" xmlns="http://www.w3.org/2000/svg" version="1.1" viewBox="0 0 1536 1024">
  <!-- Generator: Adobe Illustrator 29.8.3, SVG Export Plug-In . SVG Version: 2.1.1 Build 3)  -->
  <defs>
    <style>
      .st0 {
        fill: none;
      }
    </style>
  </defs>
  <rect class="st0" x="464" y="80.75" width="1" height="34"/>
  <path class="st0" d="M695.04,102.55c.19-3.68-.13-10.9-2.12-13.97-1.47-2.26-8.89-3.34-10-5.23-2.27-3.86-1.8-10.9-2-15.28l-79.87-26.63c-7.63-9.55-19.46-10.42-30.04-15.04-1.76-.6-3.23.65-4.7,1.42-14.13,7.37-28.41,16.63-41.84,25.16l-.47,7.01,1.99-4v20l-1.01-7-1,6.99-21.28-3.84c-12.06,7.3-27.69,13.24-37.76,23.3-4.49,4.49-2.28,11.86-3.05,17.95-.26,2.09-1.22,5.9-2.42,7.58-2.73,3.77-12.74,6.2-13.48,10.52-.8,4.72-.34,16.76-.02,22,.16,2.64.69,7.29,1.11,9.89.5,3.17,1.24,6.57,2.45,9.55l12.97,9.03c.31,11.56,5.46,17.6,15.49,22.51,6.68,3.27,24.17,9.65,30.96,6.97,4.1-1.62,12.17-9.36,16.72-12.28,11.22-7.18,21.97-11.86,35.29-13.75,1.85-.26,3.32.65,5.26.39,5.36-.72,15.39-8.07,18.73-12.32l1.5-.54c5.63.3,14.63-1.3,18.54,3.51,1.15,1.41,1.95,4.38,2.95,5.05,1.12.74,10.48,1.03,13.28,1.72,12.03,2.98,16.47,13.56,30.25,14.75,3.94.34,10.25.81,14.01.84,1.91.01,4.27-1.43,6.51-.85-.31-.99-1.11-1.83-.57-2.96,2.57-5.45,16.44-11.21,19.98-19.12,3.33-7.44,1.26-27.21,1.54-36.46.37-12.17,1.47-24.73,2.09-36.9h0ZM465,141h-1v-34h1v34Z"/>
</svg>