<?xml version="1.0" encoding="UTF-8"?>
<svg id="_Слой_1" xmlns="http://www.w3.org/2000/svg" version="1.1" viewBox="0 0 1536 1024">
  <!-- Generator: Adobe Illustrator 29.8.3, SVG Export Plug-In . SVG Version: 2.1.1 Build 3)  -->
  <defs>
    <style>
      .st0 {
        fill: none;
      }
    </style>
  </defs>
  <path class="st0" d="M52.99,516.55l3.04-.54c-6.04-1.26-10.97-6.28-16.99-7l13.95,7.54Z"/>
  <path class="st0" d="M74.03,524.99v-.98s-4.99-1-4.99-1v.98c1.68.28,3.22,1.23,4.99,1Z"/>
  <path class="st0" d="M62.04,570.01v.98s4,1,4,1c-.5-1.94-2.19-2.25-4-1.99h0Z"/>
  <path class="st0" d="M69.04,540.01v.98s4,1,4,1c-.5-1.94-2.18-2.25-4-1.99h0Z"/>
  <path class="st0" d="M63.04,537.01c.5,1.94,2.19,2.25,4,1.99v-.98s-4-1-4-1h0Z"/>
  <path class="st0" d="M18.04,516.01v.98s4,1,4,1c-.5-1.94-2.18-2.25-4-1.99h0Z"/>
  <rect class="st0" x="38.41" y="521.58" width="1.55" height="8.72" transform="translate(-449.05 326.49) rotate(-63.52)"/>
  <rect class="st0" x="78.65" y="523.93" width="1.59" height="7.07" transform="translate(-440.79 409.62) rotate(-68.67)"/>
  <rect class="st0" x="35.78" y="554.59" width="1.52" height="5.82" transform="translate(-461.29 303.91) rotate(-59.26)"/>
  <path class="st0" d="M71.04,574.01v.98s4,1,4,1c-.5-1.94-2.18-2.25-4-1.99h0Z"/>
  <path class="st0" d="M156.04,563.01v.98c1.68.28,3.22,1.23,4.99,1v-.98s-4.99-1-4.99-1Z"/>
  <rect class="st0" x="177.39" y="563.46" width="1.62" height="19.9" transform="translate(-414.42 476.69) rotate(-63.47)"/>
  <path class="st0" d="M178.54,591.99l.49-1.98-12-5.01c2.61,3.62,8.12,4.21,11.51,6.99h0Z"/>
  <rect class="st0" x="195.55" y="574.49" width="1.77" height="15.93" transform="translate(-414.54 514.99) rotate(-65.06)"/>
  <rect class="st0" x="202.59" y="597.33" width="1.7" height="9.26" transform="translate(-429.91 550.91) rotate(-66.72)"/>
  <path class="st0" d="M96.04,535.01v.98c1.68.28,3.22,1.23,4.99,1v-.98s-4.99-1-4.99-1Z"/>
  <path class="st0" d="M87.04,531.01v.98c1.68.28,3.22,1.23,4.99,1v-.98s-4.99-1-4.99-1Z"/>
  <rect class="st0" x="111.55" y="534.49" width="1.77" height="15.93" transform="translate(-426.85 415.69) rotate(-65.06)"/>
  <path class="st0" d="M133.04,552.01v.98c1.68.28,3.22,1.23,4.99,1v-.98s-4.99-1-4.99-1Z"/>
  <path class="st0" d="M327.97,573.47c.3-2.89,3.65-7.12,2.57-8.5l-97.28-40.72c-24.02-3.88-41.91-13.95-62.58-25.42-32.68-18.13-72.67-29.86-106.44-46.56l-8.28-.85c-7.66,4.42-15.65,8.29-23.28,12.77-8.03,4.72-17.77,12.68-25.65,16.35-2.02.94-3.68,1.79-6.05,1.47.94,5.58,2.62,9.05-.03,14.46l.23,118.35c4.53,2.52,8.27,6.19,12.92,8.57,3.44,1.77,19.28,7.42,20.68,8.82.88.88,2.93,8.16,4.76,10.74,3.59,5.03,11.37,11.22,15.97,16.03,1.61,1.69,2.93,4.82,4.93,6.07,3.47,2.18,9.36,1.08,13.1,4.89,4.42,4.51.39,4.71.54,9.42.77,2.33,17.68,9.82,20.62,10.42,5.05,1.02,10.08-1.81,15.26.74.95.47,1.57,2.07,2.64,2.29,4.2.85,10.14-3.77,13.11-4.59,11.52-3.18,16.93,3.24,25.93,7.64,10.63,5.19,21.87,9.23,32.4,14.65,1.57,1.16-.03,2.8.38,4.51.31,1.27,1.73,2.57,2.09,3.97,2.01,7.84,1.87,16.04.97,24.06.45.98,9.89,6.08,11.83,7.14,5.21,2.83,19.07,11.07,23.64,12.37,6.83,1.94,4.43-2.92,5.02-7.07.48-3.34,11.45-7.41,14.7-9.3,4.36-2.53,11.21-8,15.35-9.54.7-.26,1.36.05,1.97.36l.15-18.36c.91-2.75,9.94-5.3,12.63-5.41,3.43-.14,7.31,2.01,11.04.08l25.91-13.15c5.38-.04,10.15,5.1,15.25,1.3,3.72-2.77,1.39-13.55,2.03-17.97,4.59-35.09-2.66-75.31.98-110.02h0ZM19.01,516.99v-.98c1.81-.27,3.49.04,3.99,1.99l-3.99-1h0ZM39.61,559.64l-5.01-2.98.78-1.31,5.01,2.98-.78,1.31ZM43.71,528.58l-7.81-3.89.69-1.38,7.81,3.89-.69,1.38ZM53.96,516.55l-13.95-7.54c6.02.72,10.95,5.74,16.99,7,0,0-3.04.54-3.04.54ZM75,524.01v.98c-1.77.23-3.31-.72-4.99-1v-.98s4.99,1,4.99,1ZM63.01,570.99v-.98c1.81-.27,3.49.04,3.99,1.99l-3.99-1h0ZM64,537.01l3.99,1v.98c-1.81.27-3.49-.04-3.99-1.99h0ZM70,540.01c1.81-.27,3.49.04,4,1.99l-4-1v-.98s0,0,0,0ZM72.01,574.99v-.98c1.81-.27,3.49.04,3.99,1.99l-4-1h0ZM83.42,529.5l-6.59-2.57.58-1.49,6.59,2.57-.58,1.49ZM88.01,531.99v-.98s4.99,1,4.99,1v.98c-1.77.23-3.31-.72-4.99-1ZM97.01,535.99v-.98s4.99,1,4.99,1v.98c-1.77.23-3.31-.72-4.99-1ZM120.25,546.62l-14.44-6.71.75-1.61,14.44,6.72-.75,1.61h0ZM134.01,552.99v-.98s4.99,1,4.99,1v.98c-1.77.23-3.31-.72-4.99-1ZM157.01,563.99v-.98s4.99,1,4.99,1v.98c-1.77.23-3.31-.72-4.99-1ZM179.51,591.99c-3.39-2.77-8.9-3.37-11.51-6.99l12,5.01-.49,1.98h0ZM187.71,578.58l-17.81-8.89.73-1.45,17.81,8.89-.73,1.45ZM189.81,579.9l.75-1.61,14.44,6.72-.75,1.6-14.44-6.71h0ZM208.32,604.57l-8.51-3.66.67-1.56,8.51,3.66-.67,1.56Z"/>
</svg>