<?xml version="1.0" encoding="UTF-8"?>
<svg id="_Слой_1" xmlns="http://www.w3.org/2000/svg" version="1.1" viewBox="0 0 1536 1024">
  <!-- Generator: Adobe Illustrator 29.8.3, SVG Export Plug-In . SVG Version: 2.1.1 Build 3)  -->
  <defs>
    <style>
      .st0 {
        fill: none;
      }
    </style>
  </defs>
  <path class="st0" d="M1094.9,393.43c-3.85-.96-6.79-3.94-5.9,2.57,1.79.1,3.68-.23,5.47.04,2.54.38,4.47,3.48,6.52.46-2.16-3.64-3.7-2.47-6.09-3.07Z"/>
  <path class="st0" d="M960.45,359.02l-41.44-13.02,1.09,10.9c8,2.44,16.29,4.5,24.16,7.34,2.66.96,9.86,3.08,10.56,5.43l-.82,68.84,2,1.49v-24h5v50c0,.05,1,.05,1,0v-102.5c0-.4,1.53-2.42,2.07-2.93,8.55-6.28,17.57-13.05,24.93-20.56-2.02.39-4.59,2.03-6.33,3.16-7.59,4.95-13.89,11.94-22.22,15.85h0ZM956.99,408c-1.2,2.63-1.2-7.62,0-4.99.14.32.14,4.68,0,4.99Z"/>
  <rect class="st0" x="1019" y="423" width="1" height="35"/>
  <path class="st0" d="M1021.01,391c1.63-.72,3.31-2.21,2.99-4-1.63.72-3.31,2.21-2.99,4h0Z"/>
  <path class="st0" d="M1025,385.99c1.83.32,3.29-1.04,2.99-2.99l-2.99,2.99Z"/>
  <rect class="st0" x="1019" y="398" width="1" height="22"/>
  <path class="st0" d="M912,370.01v.98c1.69.28,3.23,1.23,4.99,1v-.98s-4.99-1-4.99-1Z"/>
  <rect class="st0" x="955" y="448" width="1.01" height="7.99"/>
  <path class="st0" d="M939,393.99l3.99,1.01v-2c-1.75.19-4.34-.8-3.99.99Z"/>
  <rect class="st0" x="942" y="383" width="1.01" height="8.99"/>
  <rect class="st0" x="1157" y="436" width="1.01" height="12.99"/>
  <path class="st0" d="M1127,402.99h4s0-1.99,0-1.99c-1.78-.26-3.5,0-4,1.99h0Z"/>
  <path class="st0" d="M1156.01,413.99c2.75,1.28,4.87.2,4.99-2.99-1.97.64-5.83.21-4.99,2.99Z"/>
  <polygon class="st0" points="1148.01 409.02 1147 410.99 1151 409.01 1140 406.01 1148.01 409.02"/>
  <rect class="st0" x="1107" y="399" width="4.01" height="2" transform="translate(707.18 1508.34) rotate(-89.91)"/>
  <path class="st0" d="M1132,404.99c2.47.51,4.85,2.24,6-.98-2.47-.51-4.85-2.24-6,.98Z"/>
  <rect class="st0" x="1119" y="440" width="1.01" height="11.99"/>
  <path class="st0" d="M1120.19,425.74c-.6-.48.47-2.14-1.19-1.74v14c1.74.23.98-2.28,1-3.49.05-2.5-.04-5.01,0-7.5l4.99.99c-.49-2.61-3.71-1.38-4.81-2.25Z"/>
  <path class="st0" d="M1090,387.01l12.78,5.71c1.67.21,3.33.78,4.98,1.02,1.09.16,3.43,1.13,3.23-.73l-20.99-6h0Z"/>
  <path class="st0" d="M1119.99,421c.15-.32.15-4.68,0-4.99-1.2-2.63-1.2,7.62,0,4.99Z"/>
  <path class="st0" d="M1191.01,413.51c.6-9.11-.33-18.92,4.81-27.03-.79-2.09-3.08-1.92-4.5-2.83-.42-.27-.34-1.42-1.54-1.95-3.65-1.62-11.61-1.81-12.89-5.6l-2.38.91.49-2.01h-7.02s1.02-2,1.02-2h-7.02s1.02-2,1.02-2l-4.01.99.49-2.01-2.97,1.03.49-2.01-4.01.99.49-2.01-3.49,1.01,1.02-1.99c-4.01,1.06-11.39-1.33-15.26-3.06-.5-.22-4.11-3.78-4.43-3.95-1.35-.73-7.66-3.58-8.9-3.93-1.86-.53-1.52.53-1.43,1.92l5,2-6.45-1.98c-1.28,3.23-3.64,2.73-5.62,4.4-1.45,1.22-2.06,3.56-3.38,4.63-1.27,1.01-3.04,1.08-4.58,2.42-2.65,2.32,1.5,1.13,1.03,2.03-1.6,3.03-4.65,2-6.96,3.04-3.79,1.7-3.65,4.05-4.97,5.97-1.93,2.81-6.51,3.87-7.05,7.01-.35,20.67.42,41.38.04,62.04-.04,2.39-1.04,4.51-1.09,6.91-.22,9.67.24,19.38.05,29.05-.02,1.2.74,3.73-.99,3.49-.75-25.1,1.57-49.91.99-74.99-1.73-.24-.97,2.29-.99,3.49-.19,9.57-.25,19.51-2.22,28.78l-1.76,2.29c-1.04.6-18.42-8.21-21.96-9.11-3.86-.98-7.3-.56-11.12-.87l-6.94-11.08c-.82-15.39,1.06-31.78.04-47.04-.14-2.16-.58-4.22-1.25-6.25l-16.8-5.22,1.02-1.99c-1.9.4-2.74.83-4.75.35-6.83-1.63-14.04-7.01-20.8-9.31-3.54-2.79-4-17.68-6.41-22.51-4.78-2.71-10.14-4-15.28-5.8-7.04-2.47-13.24-4.33-20.57-6.43-4.42-1.26-8.38-4.61-13.48-3.09l-44.77,26.32c-2.18,1.08-4.25-1.7-5.94.97,7.45,3.22,15.21,4.57,22.99,6.5.19,1.88-2.11.87-3.22.72-6.85-.9-12.66-2.41-18.77-5.73,2.17,9.33-.9,18.54,0,28h3.99l1.04-11.98c1.35-.33,2.51.36,3.75.68,1.07.28,4.26.91,4.21,2.29l-7-1.99v113c-1.74.23-.98-2.28-1-3.49-.3-14.67.12-29.38.05-44.05-.02-3.71.02-7.22,0-10.91-.02-4.78.94-21.99-1.56-24.54-1.21-1.24-1.85-1.15-3.49-1-.53,28.81.68,57.73.04,86.54-.23,10.42-1.31,22.62-1.11,32.97.12,6.32,1.96,17.09,3.91,23.13,1.21,3.76,3.23,5.72,3.19.42,1.15-1.61,15.25,3.27,17.84,4.05v10.77c-.53.76-5.66.69-5.88,3.1.93.08,2.5-.46,3.1.58,3.51,6.12-.88,14.37,7.99,18.83,3.48,1.75,11.82,5.92,15.09,6.91,1.95.59,3.78.88,5.82.68l.12-12.88c6.67-1.38,13.34-1.7,19.88-4.13.34-1.93-1.63-2.5-1.99-4.5-1.98-11.01,1.83-8.41,8.96-11.02,4.32-1.58,8.3-3.86,12.54-5.56,1.12-.45,3.19-.11,3.52-.4,1.41-1.23,1.53-6.09,3.41-6.25,4.96-.47,25.28,11.53,25.36,15.23.02.81-2.49,1.7-1.8,3.5,7.72-3.22,17.07-13.48,25.47-13.04,5.95.31,12.42,2.28,17.06,6.04,3.4,2.75,3.58,3.93,8.76,6.21,11.84,5.22,24.11,7.39,37.26,5.85,2.37-.28,3.27-1.73,4.96-2.04,2.99-.54,6.94.65,9.79-.21,4.91-1.48,8.9-13.5,19.15-11.84,8.41,5.14,14.2,15.12,22.03,21.02,1.34,1.01,2.99,2.36,4.81,1.89,1.55-.4,9.87-9.87,12.2-11.87,3.82-3.29,8.09-6.27,12.54-8.65.15-11.29-.36-22.63-.1-33.91.78-33.79.85-69.39,3.06-102.94h0ZM912.01,370.99v-.98s4.99,1,4.99,1v.98c-1.77.23-3.31-.72-4.99-1ZM942.99,395l-3.99-1.01c-.35-1.79,2.24-.79,3.99-.99,0,0,0,2,0,2ZM943,392h-1.01v-8.99h1.01v8.99ZM956,456h-1.01v-7.99h1.01v7.99ZM964.07,360.57c-.54.51-2.07,2.53-2.07,2.93v102.5c0,.05-1,.05-1,0v-50h-5v24l-2-1.49.82-68.84c-.7-2.35-7.9-4.47-10.56-5.43-7.87-2.84-16.16-4.89-24.16-7.34l-1.09-10.9,41.44,13.02c8.33-3.91,14.63-10.9,22.22-15.85,1.74-1.13,4.31-2.77,6.33-3.16-7.36,7.51-16.38,14.28-24.93,20.56h0ZM1020,458h-1v-35h1v35ZM1020,420h-1v-22h1v22ZM1021.01,391c-.33-1.79,1.35-3.28,2.99-4,.33,1.79-1.35,3.28-2.99,4h0ZM1025,385.99l2.99-2.99c.3,1.96-1.16,3.31-2.99,2.99ZM1094.47,396.03c-1.79-.27-3.68.07-5.47-.04-.88-6.51,2.05-3.53,5.9-2.57,2.39.6,3.92-.57,6.09,3.07-2.05,3.02-3.98-.09-6.52-.46ZM1110,402.01h-2s0-4.01,0-4.01h2s0,4.01,0,4.01ZM1107.77,393.73c-1.65-.25-3.31-.81-4.98-1.02l-12.78-5.71,20.99,6c.21,1.86-2.13.89-3.23.73h0ZM1119.99,416c.15.32.15,4.68,0,4.99-1.2,2.63-1.2-7.62,0-4.99ZM1120,452h-1.01v-11.99h1.01v11.99ZM1120.01,427c-.04,2.49.04,5,0,7.5-.02,1.21.74,3.72-1,3.49v-14c1.66-.4.59,1.26,1.19,1.74,1.1.88,4.32-.35,4.81,2.25,0,0-4.99-.99-4.99-.99ZM1131,403h-4c.5-1.99,2.21-2.26,4-1.99v1.99h0ZM1132,404.99c1.15-3.22,3.52-1.5,6-.98-1.15,3.22-3.52,1.5-6,.98ZM1147,410.99l1.01-1.97-8.01-3.01,10.99,3-4,1.99h0ZM1158,449h-1.01v-12.99h1.01v12.99ZM1156.01,413.99c-.84-2.78,3.02-2.35,4.99-2.99-.12,3.19-2.24,4.27-4.99,2.99Z"/>
  <path class="st0" d="M1086.72,386.31c.9-2.11,3.37-3.21,4.28-5.3l-6.9,3.12.91,8.88c3.54-1.28.58-4.04,1.71-6.69Z"/>
  <path class="st0" d="M1086.99,404c.15-.32.15-4.68,0-4.99-1.2-2.63-1.2,7.62,0,4.99Z"/>
  <path class="st0" d="M956.99,408c.14-.32.14-4.68,0-4.99-1.2-2.63-1.2,7.62,0,4.99Z"/>
</svg>