<?xml version="1.0" encoding="UTF-8"?>
<svg id="_Слой_1" xmlns="http://www.w3.org/2000/svg" version="1.1" viewBox="0 0 1536 1024">
  <!-- Generator: Adobe Illustrator 29.8.3, SVG Export Plug-In . SVG Version: 2.1.1 Build 3)  -->
  <defs>
    <style>
      .st0 {
        fill: none;
      }
    </style>
  </defs>
  <path class="st0" d="M638,416.01c.5,1.94,2.18,2.25,4,1.99v-.98s-4-1-4-1h0Z"/>
  <rect class="st0" x="652.88" y="419.77" width="1.76" height="8.52" transform="translate(-4.8 840.56) rotate(-65.28)"/>
  <path class="st0" d="M534,358.01c-.1,1.26,2.09,1.83,3.13,2.36,2.43,1.25,6.41,3.29,8.83,4.18.96.35,3.25,1.33,3.04-.54-5.26-1.06-9.74-5.43-14.99-6h0Z"/>
  <path class="st0" d="M565,372.01c.5,1.94,2.19,2.25,4,1.99v-.98s-4-1-4-1h0Z"/>
  <path class="st0" d="M660,427.01c.53,1.99,2.13,2.25,4,1.99-.53-1.99-2.13-2.25-4-1.99Z"/>
  <path class="st0" d="M668,431.01c.53,1.99,2.13,2.25,4,1.99-.53-1.99-2.13-2.25-4-1.99Z"/>
  <path class="st0" d="M761.81,381.69c-.98-2.08-2.88-3.14-4.76-4.24-7.7-4.47-17.93-7.5-26.04-11.5l.99-1.94-7.99-1.06c.29-.62.56-1.2.32-1.91-.83-2.47-3.05-9.12-4.39-10.49-1.69-1.72-7.78-4.71-10.24-5.76-2.8-1.2-13.45-5.03-15.71-4.38-2.99.86-8.53,5.42-11.3,5.33-1.41-.05-10.85-2.06-12.33-2.59-4.4-1.58-5.15-2.05-10.64-3.38-3.78-.92-9.7-4.58-13.01-3.58-1.17.35-2.29,1.75-3.71,2.36-1.16.5-2.55.2-3.74.77-.48.23-2.25,3.44-3,3.64-1,.26-2.29-.07-3.52.28-1.09.3-1.81,1.73-3.08,1.61-.26-.02-4.49-1.66-4.93-1.91-1.57-.88-2.6-4.14-6.75-2.95l1.02-1.99c-2.38.76-6.1.05-8.29-1.05-3.64-1.84-9.72-6.03-13.7-7.47-5.08-1.84-5.41-2.3-9.24-4.22-1.68-.85-5.4,0-7.45-2.1l-1.26.34c-4.98,3.03-10.08,5.98-15,9.09-10.09,6.36-19.65,12.65-29.41,18.4-.28.17-4.41,4.37-4.51,4.68.41,4.01-1.01,7.9-1.21,11.79-.48,9.44.84,18.82,1.1,28,.24,8.55-1.66,27.05,1.91,33.88.61,1.17,2.53.49,3.54,1.64,3.1,3.53,1.08,14.2-1.51,18.02,9.79,5.06,20.19,9.43,29.9,14.61,3.39,1.81,6.85,3.8,10.02,5.98,7.87,5.4,5.6,3.34,14.34,5.66,5.31,1.41,16.17,6.19,21.04,8.96,1.71.97,5.56,4.47,6.38,4.68,2.19.55,6.43-2.27,10.31-.37,4.69,2.3,5.55,13.14,8.99,17.07,1.65,1.18,4.79-2.02,7.29-1.42,2.22.54,12.79,9.54,16.41,11.65,6.05,3.54,12.84,5.5,18.82,9.17,2.2-1.77,1.23-4.87,3.01-6.96,1.01-1.18,11.18-6.94,13.97-9.03,18.05-13.55,33.56-30.61,49.49-46.51,8.9-8.88,16.8-14.99,18.02-28.97,1.45-16.49-.93-35.11-.19-51.82h0ZM545.96,364.55c-2.42-.89-6.4-2.93-8.83-4.18-1.03-.53-3.22-1.1-3.12-2.36,5.25.57,9.73,4.94,14.99,6,.2,1.86-2.08.89-3.04.54h0ZM565,372.01l3.99,1v.98c-1.81.27-3.49-.04-3.99-1.99h0ZM638,416.01l4,1v.98c-1.81.27-3.49-.04-3.99-1.99h0ZM657.26,426.6l-7.74-3.56.74-1.6,7.74,3.56-.74,1.6ZM660,427.01c1.87-.26,3.46,0,4,1.99-1.87.26-3.46,0-4-1.99ZM668,431.01c1.87-.26,3.46,0,4,1.99-1.87.26-3.46,0-4-1.99Z"/>
</svg>